<svg width="22" height="23" viewBox="0 0 22 23" fill="none" xmlns="http://www.w3.org/2000/svg">
<path d="M11 0C15.6097 0 19.3625 3.66899 19.4975 8.24605L19.5012 8.50124L19.501 13.113L20.915 16.757C20.9532 16.8554 20.979 16.958 20.9919 17.0624L21.0017 17.22C21.0017 17.8827 20.498 18.4278 19.8526 18.4934L19.7217 18.5L14.5014 18.5011C14.5014 20.4348 12.9338 22.0025 11 22.0025C9.13068 22.0025 7.60349 20.5376 7.50376 18.6932L7.49845 18.499L2.27479 18.5C2.11608 18.5 1.95876 18.4705 1.81084 18.413C1.19317 18.1727 0.867697 17.5057 1.04055 16.8804L1.08183 16.7561L2.498 13.112L2.49876 8.50124C2.49876 3.80614 6.30489 0 11 0ZM12.9959 18.6504L13.0004 18.499L8.99858 18.5011C8.99858 19.6064 9.89465 20.5025 11 20.5025C12.0551 20.5025 12.9195 19.686 12.9959 18.6504ZM11 1.5C7.21388 1.5 4.12968 4.50532 4.00282 8.26055L3.99876 8.50124V13.2534C3.99876 13.3154 3.99107 13.377 3.97596 13.4369L3.94776 13.5252L2.596 16.999H19.4L18.052 13.5246C18.0297 13.467 18.0145 13.4069 18.007 13.3457L18.0012 13.2534V8.50124C18.0012 4.63456 14.8667 1.5 11 1.5Z" fill="#4D4959"/>
</svg>
